<svg width="97" height="143" viewBox="0 0 97 143" fill="none" xmlns="http://www.w3.org/2000/svg">
<path fill-rule="evenodd" clip-rule="evenodd" d="M55.8193 119.634L64.8193 105.614L73.8193 119.634L66.3782 119.634L66.3782 143L63.2605 143L63.2605 119.634L55.8193 119.634Z" fill="#ED1C39"/>
<path fill-rule="evenodd" clip-rule="evenodd" d="M19 119.634L28 105.614L37 119.634L29.5588 119.634L29.5588 143L26.4412 143L26.4412 119.634L19 119.634Z" fill="#ED1C39"/>
<path fill-rule="evenodd" clip-rule="evenodd" d="M25.3574 0.0889248C24.559 0.2994 23.8782 1.11209 23.7637 1.99089C23.7118 2.3898 23.6268 4.86868 23.5749 7.49962C23.3759 17.5619 22.1482 26.5491 19.6303 36.3775C18.9112 39.1846 16.5212 47.1105 15.7942 49.0991C15.0489 51.1379 13.1596 54.6012 9.68974 60.2891C3.28988 70.7795 1.01296 75.7589 0.177306 81.0909C-0.944812 88.2498 3.34374 94.9119 10.6463 97.3544C14.4663 98.6321 20.8142 98.6314 24.8843 97.353C28.1521 96.3264 30.4078 94.2793 30.8517 91.9372L30.9731 91.2966H28.7281H26.4833L26.0013 91.8619C24.8093 93.2598 21.6752 94.0549 17.3545 94.0555C14.5939 94.0558 12.843 93.7507 10.9807 92.9443C8.0177 91.6613 5.53612 88.6989 4.77788 85.5398C4.40999 84.0063 4.40652 82.9128 4.76382 81.0019C5.58213 76.6242 7.90706 71.7357 13.5949 62.4339C16.5826 57.5475 18.6552 53.8461 19.5399 51.8165C20.021 50.7127 22.0586 44.4605 23.0699 40.9842C26.2126 30.182 27.8824 18.9402 28.1581 6.72862C28.2598 2.22101 28.2396 1.62802 27.9672 1.13515C27.4587 0.214835 26.4355 -0.195353 25.3574 0.0889248ZM70.2169 0.12463C69.8499 0.24046 69.4001 0.575478 69.1459 0.922283L68.7079 1.52022L68.8145 6.64542C69.0926 20.0148 70.9178 31.3374 74.8595 44.1448C77.3042 52.0883 78.1506 53.9122 83.3042 62.3392C84.9131 64.9701 86.6866 67.9299 87.2451 68.9165C90.4793 74.6286 92.4822 80.1672 92.4843 83.4043C92.4851 84.6456 91.9976 86.5556 91.3533 87.8357C89.0515 92.4091 84.3891 94.5258 77.7334 94.0191C74.2942 93.7572 71.9417 93.0055 70.9604 91.8549L70.4844 91.2966H68.2396H65.9946L66.1193 91.9372C66.6114 94.467 69.2235 96.6401 72.9269 97.6004C76.149 98.4358 82.0112 98.5303 84.9025 97.7933C91.7157 96.0567 96.3544 90.8857 96.9639 84.348C97.1954 81.8647 96.3013 77.77 94.6568 73.7821C93.787 71.6729 91.3483 67.016 89.5591 64.0476C88.8229 62.8261 87.9205 61.327 87.5537 60.7162C87.1869 60.1055 86.4328 58.8754 85.8778 57.9828C84.3 55.4448 82.3371 51.877 81.7129 50.4127C80.8162 48.3095 78.5636 41.0934 77.3564 36.457C74.8295 26.754 73.6033 17.641 73.3441 6.6379C73.238 2.14362 73.1831 1.44796 72.901 1.04529C72.2776 0.155212 71.2433 -0.199624 70.2169 0.12463ZM23.5159 79.5272C19.7455 80.1151 16.501 82.4725 14.0055 86.4375C13.1987 87.7193 13.0358 88.6268 13.4572 89.4921C13.6759 89.9416 14.9259 90.6137 15.5408 90.6125C16.0288 90.6117 17.0087 90.0267 17.3147 89.5536C17.4544 89.3377 17.8491 88.7083 18.1918 88.155C19.0877 86.709 20.9708 84.9512 22.2883 84.3313C24.3198 83.3754 26.2814 83.4605 28.7157 84.6102C30.6804 85.5382 32.2122 86.7628 35.1558 89.7588C39.8741 94.5611 41.7838 95.7056 45.7145 96.086C47.7616 96.2842 50.6943 96.0447 52.2851 95.5494C53.5971 95.1408 55.6248 93.9125 56.9737 92.7089C57.4758 92.261 58.7903 90.9754 59.8949 89.8519C62.9038 86.7919 64.0986 85.8249 66.2179 84.7349C69.5815 83.0048 72.4462 83.4019 75.1246 85.9691C75.7859 86.6029 76.6144 87.6057 76.9659 88.1977C77.3173 88.7898 77.7958 89.4971 78.0292 89.7698C79.1235 91.0483 81.229 90.6961 81.8012 89.1385C82.1262 88.2542 81.8427 87.44 80.5809 85.633C75.613 78.5191 68.3161 77.4553 61.1297 82.7973C59.6452 83.9009 58.4852 84.9757 55.6044 87.917C52.707 90.8753 51.569 91.5552 49.0088 91.8576C46.9194 92.1043 44.848 91.8487 43.4973 91.1771C42.5255 90.6938 39.5699 88.0651 37.6211 85.9506C37.033 85.3124 35.8884 84.265 35.0778 83.6229C31.991 81.1784 29.2861 79.8833 26.5158 79.5233C24.9251 79.3166 24.8661 79.3168 23.5159 79.5272Z" fill="#3E4D5B"/>
</svg>
