<svg width="70" height="70" viewBox="0 0 70 70" fill="none" xmlns="http://www.w3.org/2000/svg">
<path d="M30.8008 14.9014C31.4866 14.9014 32.0425 14.3454 32.0425 13.6597C32.0425 12.9739 31.4866 12.418 30.8008 12.418C30.115 12.418 29.5591 12.9739 29.5591 13.6597C29.5591 14.3454 30.115 14.9014 30.8008 14.9014Z" fill="#2487A7"/>
<path d="M27.2759 49.9837C25.3588 49.9837 22.7034 46.3744 22.7034 39.5972C22.7034 38.7727 24.9139 36.5274 26.5291 34.888C27.8034 33.5935 29.2478 32.1265 30.5149 30.5917C38.8772 20.4712 51.3147 7.14686 51.4395 7.01338C51.9076 6.51267 51.8809 5.72667 51.3802 5.25886C50.8807 4.79136 50.0925 4.81495 49.6257 5.31815C49.5009 5.45225 37.0109 18.8307 28.6015 29.0104C27.4023 30.4614 26.0588 31.826 24.7587 33.1453C22.1238 35.8215 20.22 37.7551 20.22 39.5969C20.22 47.956 23.8554 52.4668 27.2759 52.4668C30.8918 52.4668 39.1159 54.194 39.1159 57.0393C39.1159 58.7631 37.9142 60.6474 36.7514 62.4699C35.3073 64.7345 33.8132 67.0766 34.8863 69.2229C35.1046 69.6581 35.5423 69.9093 35.9983 69.9093C36.1852 69.9093 36.3742 69.8674 36.5524 69.7783C37.1661 69.4716 37.4144 68.7256 37.1077 68.1122C36.6638 67.2253 37.7736 65.4863 38.8455 63.8051C40.1356 61.7811 41.5993 59.4877 41.5993 57.0393C41.5993 51.2102 29.6321 49.9837 27.2759 49.9837Z" fill="#2487A7"/>
<path d="M49.9672 51.4257C50.1696 50.9836 50.0944 50.464 49.7769 50.0967C44.8805 44.4436 41.7167 42.3876 39.5111 43.4176C37.087 44.555 37.6423 48.7247 37.7783 49.5491C37.8885 50.2252 38.5155 50.6853 39.2056 50.5726C39.8824 50.4612 40.3393 49.822 40.2279 49.1453C39.9817 47.6472 40.1552 45.8591 40.5662 45.6663C40.5783 45.6592 41.785 45.1861 46.0425 49.668H44.4599C43.7735 49.668 43.2182 50.224 43.2182 50.9097C43.2182 51.5955 43.7735 52.1514 44.4599 52.1514H48.8385C49.3246 52.1511 49.766 51.8674 49.9672 51.4257Z" fill="#2487A7"/>
<path d="M55.7771 42.8662C55.5747 42.2115 54.8797 41.8396 54.225 42.0448C53.5691 42.2459 53.2015 42.941 53.403 43.5963C55.2159 49.4866 55.1333 53.6959 53.164 55.7708C50.7569 58.3051 46.0847 57.1767 46.0071 57.1569C45.3437 56.9902 44.6686 57.3885 44.4975 58.0525C44.3277 58.7164 44.7278 59.3929 45.3925 59.5633C45.5052 59.5925 46.7822 59.9088 48.4629 59.9088C50.4831 59.9088 53.0854 59.4515 54.9539 57.4915C57.6238 54.6909 57.9017 49.7703 55.7771 42.8662Z" fill="#2487A7"/>
<path d="M20.8669 4.9668C21.5533 4.9668 22.1086 4.41083 22.1086 3.7251V1.2417C22.1086 0.555971 21.5533 0 20.8669 0C20.1806 0 19.6252 0.555971 19.6252 1.2417V3.7251C19.6252 4.41083 20.1806 4.9668 20.8669 4.9668Z" fill="#2487A7"/>
<path d="M22.1086 11.1753V8.6919C22.1086 8.00617 21.5533 7.4502 20.8669 7.4502C20.1806 7.4502 19.6252 8.00617 19.6252 8.6919V11.1753C19.6252 11.861 20.1806 12.417 20.8669 12.417C21.5533 12.417 22.1086 11.861 22.1086 11.1753Z" fill="#2487A7"/>
<path d="M15.9011 7.45019H18.3845C19.0709 7.45019 19.6262 6.89422 19.6262 6.2085C19.6262 5.52277 19.0709 4.9668 18.3845 4.9668H15.9011C15.2148 4.9668 14.6594 5.52277 14.6594 6.2085C14.6594 6.89422 15.2148 7.45019 15.9011 7.45019Z" fill="#2487A7"/>
<path d="M23.3496 7.45019H25.833C26.5194 7.45019 27.0747 6.89422 27.0747 6.2085C27.0747 5.52277 26.5194 4.9668 25.833 4.9668H23.3496C22.6633 4.9668 22.1079 5.52277 22.1079 6.2085C22.1079 6.89422 22.6633 7.45019 23.3496 7.45019Z" fill="#2487A7"/>
<path d="M17.889 19.7008C16.9856 19.2181 15.9501 19.1157 14.9716 19.4128C13.9931 19.7092 13.1879 20.3695 12.7052 21.2716C12.2225 22.1737 12.1194 23.2099 12.4165 24.189C12.7136 25.1681 13.3732 25.9727 14.2753 26.4554C14.839 26.7568 15.4552 26.9102 16.0773 26.9102C16.4508 26.9102 16.8255 26.8549 17.193 26.7435C18.1727 26.447 18.9779 25.7867 19.4607 24.8846C19.9421 23.9825 20.0452 22.9463 19.7481 21.9673C19.451 20.9882 18.7911 20.1836 17.889 19.7008ZM17.2706 23.7134C17.1008 24.0304 16.8171 24.2629 16.4728 24.3668C15.7647 24.5804 15.0079 24.1806 14.7934 23.4688C14.6891 23.1245 14.7254 22.7601 14.8952 22.4428C15.065 22.1256 15.3475 21.8934 15.6918 21.7894C15.8215 21.75 15.9525 21.7307 16.0848 21.7307C16.303 21.7307 16.5188 21.7847 16.7177 21.8909C17.0344 22.0607 17.2672 22.3432 17.3712 22.6875C17.4752 23.0317 17.4404 23.3965 17.2706 23.7134Z" fill="#2487A7"/>
</svg>
