<svg width="97" height="144" viewBox="0 0 97 144" fill="none" xmlns="http://www.w3.org/2000/svg">
<path fill-rule="evenodd" clip-rule="evenodd" d="M55 119.73L64 105.699L73 119.73L65.5588 119.73L65.5588 143.115L62.4412 143.115L62.4412 119.73L55 119.73Z" fill="#ED1C39"/>
<path fill-rule="evenodd" clip-rule="evenodd" d="M25.3574 0.0889962C24.559 0.29964 23.8782 1.11298 23.7637 1.99248C23.7118 2.39172 23.6268 4.87259 23.5749 7.50563C23.3759 17.576 22.1482 26.5704 19.6303 36.4067C18.9112 39.216 16.5212 47.1483 15.7942 49.1385C15.0489 51.179 13.1596 54.645 9.68974 60.3375C3.28988 70.8363 1.01296 75.8196 0.177306 81.156C-0.944812 88.3206 3.34374 94.988 10.6463 97.4325C14.4663 98.7112 20.8142 98.7105 24.8843 97.4311C28.1521 96.4037 30.4078 94.3549 30.8517 92.011L30.9731 91.3698H28.7281H26.4833L26.0013 91.9356C24.8093 93.3347 21.6752 94.1304 17.3545 94.1309C14.5939 94.1313 12.843 93.8259 10.9807 93.0189C8.0177 91.7349 5.53612 88.7701 4.77788 85.6084C4.40999 84.0737 4.40652 82.9793 4.76382 81.0669C5.58213 76.6856 7.90706 71.7933 13.5949 62.484C16.5826 57.5937 18.6552 53.8893 19.5399 51.8581C20.021 50.7534 22.0586 44.4962 23.0699 41.0171C26.2126 30.2062 27.8824 18.9554 28.1581 6.73402C28.2598 2.22279 28.2396 1.62933 27.9672 1.13606C27.4587 0.215008 26.4355 -0.195509 25.3574 0.0889962ZM70.2169 0.12473C69.8499 0.240653 69.4001 0.57594 69.1459 0.923023L68.7079 1.52144L68.8145 6.65075C69.0926 20.0309 70.9178 31.3626 74.8595 44.1802C77.3042 52.1301 78.1506 53.9555 83.3042 62.3892C84.9131 65.0223 86.6866 67.9845 87.2451 68.9718C90.4793 74.6885 92.4822 80.2315 92.4843 83.4712C92.4851 84.7135 91.9976 86.625 91.3533 87.9062C89.0515 92.4832 84.3891 94.6016 77.7334 94.0945C74.2942 93.8324 71.9417 93.0801 70.9604 91.9286L70.4844 91.3698H68.2396H65.9946L66.1193 92.011C66.6114 94.5428 69.2235 96.7176 72.9269 97.6787C76.149 98.5148 82.0112 98.6093 84.9025 97.8717C91.7157 96.1338 96.3544 90.9586 96.9639 84.4157C97.1954 81.9304 96.3013 77.8324 94.6568 73.8413C93.787 71.7304 91.3483 67.0697 89.5591 64.099C88.8229 62.8765 87.9205 61.3762 87.5537 60.765C87.1869 60.1537 86.4328 58.9227 85.8778 58.0293C84.3 55.4893 82.3371 51.9186 81.7129 50.4532C80.8162 48.3483 78.5636 41.1264 77.3564 36.4862C74.8295 26.7754 73.6033 17.6552 73.3441 6.64323C73.238 2.14534 73.1831 1.44912 72.901 1.04613C72.2776 0.155336 71.2433 -0.199784 70.2169 0.12473ZM23.5159 79.591C19.7455 80.1794 16.501 82.5387 14.0055 86.5069C13.1987 87.7897 13.0358 88.698 13.4572 89.564C13.6759 90.0138 14.9259 90.6864 15.5408 90.6852C16.0288 90.6844 17.0087 90.0989 17.3147 89.6255C17.4544 89.4094 17.8491 88.7795 18.1918 88.2257C19.0877 86.7786 20.9708 85.0194 22.2883 84.3989C24.3198 83.4423 26.2814 83.5275 28.7157 84.6781C30.6804 85.6069 32.2122 86.8324 35.1558 89.8309C39.8741 94.637 41.7838 95.7824 45.7145 96.1632C47.7616 96.3615 50.6943 96.1218 52.2851 95.6261C53.5971 95.2171 55.6248 93.9878 56.9737 92.7833C57.4758 92.335 58.7903 91.0484 59.8949 89.924C62.9038 86.8615 64.0986 85.8938 66.2179 84.8029C69.5815 83.0715 72.4462 83.4688 75.1246 86.0381C75.7859 86.6724 76.6144 87.676 76.9659 88.2685C77.3173 88.8611 77.7958 89.5689 78.0292 89.8418C79.1235 91.1214 81.229 90.7688 81.8012 89.21C82.1262 88.3251 81.8427 87.5102 80.5809 85.7018C75.613 78.5821 68.3161 77.5174 61.1297 82.8637C59.6452 83.9682 58.4852 85.0438 55.6044 87.9876C52.707 90.9482 51.569 91.6287 49.0088 91.9313C46.9194 92.1782 44.848 91.9224 43.4973 91.2503C42.5255 90.7666 39.5699 88.1358 37.6211 86.0196C37.033 85.3808 35.8884 84.3326 35.0778 83.6901C31.991 81.2435 29.2861 79.9474 26.5158 79.5871C24.9251 79.3802 24.8661 79.3804 23.5159 79.591Z" fill="#3E4D5B"/>
</svg>
