<svg width="70" height="70" viewBox="0 0 70 70" fill="none" xmlns="http://www.w3.org/2000/svg">
<path d="M4.52539 19.6191C4.92188 23.9805 6.2207 32.6895 10.5137 42.0957C15.791 53.6758 23.8437 62.6992 34.4531 68.8926C34.7949 69.0977 35.2187 69.0977 35.5605 68.8926C46.1699 62.6992 54.2227 53.6758 59.5 42.0957C63.7793 32.6895 65.0918 23.9805 65.4883 19.6191C65.6797 17.4727 64.5176 15.3809 62.5762 14.4375L35.4785 1.06641C35.3418 0.998047 35.1641 0.957031 35 0.957031C34.8359 0.957031 34.6582 0.998047 34.5215 1.06641L7.4375 14.4375C5.49609 15.3945 4.33398 17.4727 4.52539 19.6191ZM8.39453 16.3926L35 3.26758L61.6055 16.3926C62.7402 16.9531 63.4238 18.1699 63.3008 19.4277C62.6309 26.8516 58.625 52.1992 35.5059 66.377L35 66.6777L34.4941 66.377C11.375 52.1992 7.38281 26.8516 6.69922 19.4277C6.58984 18.1699 7.27344 16.9531 8.39453 16.3926Z" fill="#4CAF50"/>
<path d="M51.0371 28.1641C51.0371 27.5625 50.5449 27.0703 49.9434 27.0703H40.1953V17.3223C40.1953 16.7207 39.7031 16.2285 39.1016 16.2285H30.8984C30.2969 16.2285 29.8047 16.7207 29.8047 17.3223V27.0703H20.0566C19.4551 27.0703 18.9629 27.5625 18.9629 28.1641V36.3672C18.9629 36.9688 19.4551 37.4609 20.0566 37.4609H29.8047V47.209C29.8047 47.8106 30.2969 48.3027 30.8984 48.3027H39.1016C39.7031 48.3027 40.1953 47.8106 40.1953 47.209V37.4609H49.9434C50.5449 37.4609 51.0371 36.9688 51.0371 36.3672V28.1641ZM48.8496 35.2734H39.1016C38.5 35.2734 38.0078 35.7656 38.0078 36.3672V46.1152H31.9922V36.3672C31.9922 35.7656 31.5 35.2734 30.8984 35.2734H21.1504V29.2578H30.8984C31.5 29.2578 31.9922 28.7656 31.9922 28.1641V18.416H38.0078V28.1641C38.0078 28.7656 38.5 29.2578 39.1016 29.2578H48.8496V35.2734Z" fill="#4CAF50"/>
</svg>
