<svg width="70" height="70" viewBox="0 0 70 70" fill="none" xmlns="http://www.w3.org/2000/svg">
<path fill-rule="evenodd" clip-rule="evenodd" d="M59.891 0.0875266C57.4864 0.48992 54.9812 2.32838 53.8751 4.50223C52.6756 6.85971 52.769 10.3393 54.0853 12.3328C54.3787 12.7772 54.4938 12.8456 54.9478 12.8456C55.4785 12.8456 55.792 12.6224 55.9722 12.1165C56.0254 11.9671 55.8936 11.484 55.6455 10.9191C54.6129 8.56705 55.0216 5.878 56.6813 4.10422C59.1553 1.46015 63.0645 1.37004 65.594 3.89871C68.0055 6.30952 67.9983 10.2784 65.5777 12.6342C63.7548 14.4085 61.3746 14.8935 58.9318 13.9884C57.7609 13.5545 57.3547 13.62 57.0755 14.2879C56.6942 15.2005 57.2886 15.7228 59.3439 16.2812C60.2784 16.5349 62.4107 16.4972 63.3788 16.2097C65.472 15.5878 67.4309 14.0611 68.4195 12.2814C69.8315 9.73964 69.7873 6.56698 68.3046 4.01015C67.6766 2.92739 66.099 1.46876 64.9383 0.897783C63.4198 0.150695 61.4259 -0.169387 59.891 0.0875266ZM25.9708 0.813421C25.5982 1.18587 25.622 1.5482 26.1743 3.90486C26.4368 5.02454 26.6514 6.03305 26.6514 6.14585C26.6514 6.27246 26.2725 6.50367 25.6614 6.75019C23.9071 7.45777 22.8403 8.18229 21.2809 9.72515L19.8051 11.1851L17.7271 9.89606C16.584 9.18712 15.5177 8.60697 15.3573 8.60697C14.8567 8.60697 14.3449 9.11834 14.3449 9.6185C14.3449 10.1915 14.5338 10.3549 16.8068 11.7472C17.8224 12.3693 18.6771 12.8999 18.7061 12.9261C18.7682 12.9824 16.183 17.2008 15.916 17.4788C15.7621 17.639 15.4229 17.4758 13.7146 16.4191C11.5964 15.1089 11.0434 14.9284 10.6209 15.4092C10.2684 15.8105 10.1996 16.2478 10.433 16.6036C10.5506 16.7832 11.567 17.5005 12.6915 18.1977C13.8548 18.9188 14.6989 19.5267 14.6493 19.6078C14.1512 20.4246 11.8394 24.1375 11.8058 24.1751C11.7813 24.2021 10.8631 23.6618 9.7651 22.9742C8.6672 22.2866 7.59078 21.6884 7.37304 21.6448C6.85507 21.5413 6.27514 22.0837 6.27514 22.6717C6.27514 23.1882 6.55731 23.4233 8.8405 24.8094C10.1102 25.5802 10.6213 25.9624 10.5715 26.1039C10.5327 26.2143 9.88409 27.3025 9.13019 28.5224L7.75943 30.7401L6.29921 29.8377C5.49607 29.3414 4.55519 28.7607 4.20833 28.5473C3.4841 28.1015 3.00649 28.0574 2.60314 28.3985C2.17886 28.7575 2.10705 29.2706 2.42478 29.6743C2.5725 29.8619 3.5897 30.5669 4.68554 31.2408C6.15943 32.1473 6.65579 32.5195 6.59287 32.6713C5.44984 35.4309 5.11392 37.0606 5.22156 39.3242L5.29405 40.85L3.42515 41.284C0.636444 41.9315 0.537966 41.9615 0.24978 42.2496C-0.320846 42.82 0.155269 43.8831 0.981391 43.8831C1.18204 43.8831 2.26311 43.6677 3.38399 43.4045C4.50472 43.1413 5.51016 42.926 5.61835 42.926C5.73488 42.926 5.99489 43.3616 6.25695 43.996C6.94507 45.6623 7.93792 47.095 9.37748 48.499L10.6756 49.7651L9.51959 51.6438C8.88372 52.6771 8.29217 53.6596 8.20504 53.8272C7.87336 54.4655 8.39748 55.2316 9.16575 55.2316C9.63612 55.2316 9.91637 54.8956 11.2751 52.7028C11.8687 51.7448 12.427 50.9331 12.5158 50.899C12.6044 50.865 12.9247 50.9634 13.2276 51.1179C13.5302 51.2723 14.3209 51.5641 14.9847 51.7663C16.08 52.1001 16.4032 52.1349 18.4859 52.1445L20.7806 52.1552L20.9057 52.6337C20.9747 52.8969 21.224 53.9406 21.4599 54.9529C21.9585 57.0919 22.0096 57.2099 22.515 57.386C22.9941 57.5531 23.4281 57.396 23.7206 56.95C23.9377 56.6185 23.9224 56.4929 23.3853 54.1969C23.0757 52.8738 22.8546 51.7392 22.894 51.6755C22.9333 51.6119 23.1955 51.4853 23.4765 51.3943C25.4294 50.7614 27.9408 48.9348 29.3482 47.1233L29.6459 46.7402L31.7547 48.0462C33.031 48.8366 34.0063 49.3522 34.2256 49.3522C35.0447 49.3522 35.4613 48.3094 34.8952 47.6763C34.7771 47.5443 33.8132 46.9038 32.7533 46.2531C31.6935 45.6024 30.8096 45.0581 30.7894 45.0435C30.7221 44.9951 33.6565 40.3281 33.7541 40.3281C33.8066 40.3281 34.6466 40.8285 35.6205 41.4403C37.8215 42.8223 38.0755 42.9355 38.5816 42.7592C39.1991 42.5439 39.4459 41.7747 39.06 41.268C38.9669 41.1457 38.0308 40.5127 36.9798 39.861C35.9288 39.2095 35.0153 38.6227 34.9497 38.5571C34.8476 38.4551 37.2044 34.4302 37.6514 33.9431C37.766 33.8183 38.2749 34.0714 39.7851 35.004C40.8759 35.6777 41.8806 36.2647 42.0178 36.3083C42.4103 36.4334 43.0366 36.1017 43.1792 35.6931C43.4269 34.9828 43.1381 34.6745 40.9477 33.3094C39.8193 32.6062 38.896 32.0002 38.896 31.9629C38.896 31.7948 41.7296 27.3389 41.8364 27.3389C41.9025 27.3389 42.8465 27.8926 43.9344 28.5694C45.2506 29.3881 46.0464 29.8 46.3127 29.8C47.1173 29.8 47.614 28.7388 47.0656 28.1907C46.9325 28.0576 45.9478 27.4041 44.8772 26.7383C43.8068 26.0726 42.9309 25.4978 42.9309 25.461C42.9309 25.4242 43.1414 24.8318 43.3988 24.1446C44.1165 22.2281 44.334 20.9241 44.278 18.8725L44.2303 17.1177L46.5462 16.5881C47.8742 16.2846 48.9973 15.9525 49.1791 15.8095C49.8281 15.2993 49.4262 14.0761 48.6097 14.0761C48.316 14.0761 44.4207 14.9311 43.9098 15.1076C43.8044 15.1441 43.6932 15.0449 43.6486 14.8744C43.4768 14.2175 42.245 11.905 41.6413 11.1058C41.2876 10.6378 40.5124 9.80376 39.9187 9.25234L38.8391 8.2497L40.1328 6.14366C40.8443 4.9853 41.4264 3.89379 41.4264 3.71823C41.4264 3.32021 40.8519 2.72763 40.4662 2.72763C39.9171 2.72763 39.6582 3.01066 38.4947 4.88193C37.8523 5.91546 37.2694 6.84878 37.1995 6.95584C37.0929 7.11895 36.8986 7.08204 36.0009 6.72832C33.9575 5.92285 33.3443 5.81155 30.929 5.80759C29.7065 5.80567 28.7057 5.77327 28.7049 5.73567C28.6942 5.26122 27.5471 0.968198 27.3823 0.786212C27.0793 0.451636 26.3181 0.466266 25.9708 0.813421ZM33.1905 8.00414C35.3769 8.45562 37.2616 9.48601 38.9083 11.1304C40.2416 12.4618 41.1308 13.9121 41.7204 15.7169C42.5728 18.3254 42.3801 21.6238 41.2365 24.0043C40.8221 24.8668 29.3917 43.4298 28.1162 45.3117C26.9256 47.0684 24.8896 48.6745 22.9074 49.4202C20.0412 50.4987 16.6528 50.4265 14.0148 49.2308C9.88272 47.3579 7.23175 43.2083 7.23544 38.619C7.23653 37.2089 7.68393 35.2601 8.30023 33.9811C8.81984 32.9028 20.7572 13.5378 21.6778 12.2798C23.2023 10.1966 26.004 8.4671 28.7152 7.9355C29.7351 7.73546 32.0626 7.77115 33.1905 8.00414ZM29.2591 11.0038C27.6869 11.2882 26.1106 12.1314 24.9446 13.3117C24.109 14.1574 23.1748 15.5918 17.6349 24.5359C14.1414 30.176 11.1432 35.129 10.9723 35.5426C10.4873 36.7156 10.3394 37.6678 10.4099 39.1644C10.7094 45.5367 17.5454 49.1705 23.0832 45.9015C24.459 45.0891 25.3103 44.0523 27.4909 40.5332C29.6537 37.0428 29.8107 36.6467 29.2534 36.0895C28.9448 35.781 28.3213 35.7303 27.9925 35.987C27.8721 36.081 26.9003 37.573 25.8332 39.3026C23.6362 42.8633 22.9553 43.6646 21.5256 44.3721C17.9653 46.134 13.8374 44.3516 12.6801 40.5525C12.285 39.2562 12.3703 37.4319 12.8776 36.3244C13.0707 35.9026 16.0187 31.0476 19.4288 25.5354C24.341 17.5951 25.7908 15.352 26.4082 14.7368C28.5952 12.5575 32.0688 12.3017 34.562 14.1364C36.9103 15.8646 37.7916 19.084 36.6342 21.7062C36.4914 22.0299 34.9881 24.5318 33.2937 27.2661C31.5994 30.0003 30.1588 32.3811 30.0926 32.5568C29.9511 32.9324 30.1148 33.4567 30.4539 33.7141C30.8284 33.9986 31.2693 33.9318 31.6958 33.5258C31.9131 33.3191 33.4978 30.8733 35.2173 28.0909C38.5786 22.6519 39.0018 21.7743 39.1682 19.8967C39.5382 15.7228 36.4754 11.7371 32.3307 10.9991C31.0097 10.7637 30.5827 10.7644 29.2591 11.0038ZM29.1557 18.6499C27.7848 19.0781 26.8621 19.8763 26.303 21.1177C25.8615 22.0976 25.7905 22.9667 26.024 24.5359C26.3968 27.0431 25.9366 27.9264 23.9566 28.5035C22.9695 28.7912 22.6499 29.5215 23.2089 30.2115C23.7129 30.8336 25.5527 30.3911 26.7154 29.3679C28.0121 28.2269 28.4203 26.775 28.0829 24.5032C27.8032 22.6202 27.9661 21.8099 28.7576 21.148C29.1296 20.837 29.8946 20.5024 30.2338 20.5024C30.3784 20.5024 30.6478 20.3513 30.8325 20.1667C31.2894 19.7101 31.279 19.1053 30.8078 18.7349C30.3981 18.4126 29.9834 18.3913 29.1557 18.6499ZM58.0191 24.1745C57.0233 24.5185 56.2759 25.0486 55.7235 25.8027C54.3656 27.6565 54.5334 30.2092 56.1166 31.7836C57.1771 32.8382 57.9166 33.144 59.4123 33.1464C60.8688 33.1489 61.5637 32.8894 62.5602 31.9711C64.428 30.2501 64.564 27.4083 62.8708 25.4806C61.6866 24.1323 59.6942 23.5959 58.0191 24.1745ZM60.5354 26.259C62.5138 27.2163 62.4723 30.0387 60.4667 30.9255C58.7399 31.6892 56.882 30.4593 56.882 28.5527C56.882 26.6333 58.809 25.4235 60.5354 26.259ZM18.9218 33.4357C17.5423 33.9254 16.6701 35.1917 16.6701 36.7048C16.6701 38.5575 17.9244 39.964 19.7442 40.1517C21.7708 40.3608 23.5088 38.7694 23.5088 36.7048C23.5088 34.2985 21.1757 32.6357 18.9218 33.4357ZM20.6798 35.4219C21.5034 35.843 21.7335 36.9821 21.1269 37.6365C20.2424 38.5906 18.7217 38.043 18.7217 36.7704C18.7217 36.0784 18.8909 35.7448 19.3748 35.4823C19.8256 35.2377 20.2785 35.2168 20.6798 35.4219ZM55.1277 41.8751C54.8693 42.15 54.8304 42.3479 54.8304 43.3835C54.8304 44.2197 54.7793 44.5898 54.6594 44.6241C54.5654 44.6511 53.9372 44.8022 53.2635 44.9598C51.8775 45.2844 50.441 45.9222 49.38 46.6842L48.6596 47.2016L47.1835 45.7474C45.9521 44.5344 45.6374 44.2933 45.2864 44.2933C44.9947 44.2933 44.7786 44.4037 44.5822 44.6535C44.059 45.3183 44.1809 45.5819 45.7437 47.1673L47.1886 48.633L46.5154 49.6641C45.6785 50.9457 45.193 52.1412 44.896 53.6528L44.6662 54.8214H43.3981C42.1912 54.8214 42.1164 54.8387 41.8467 55.1817C41.4792 55.6486 41.4888 55.9502 41.8857 56.4114C42.1836 56.7577 42.3019 56.7907 43.4386 56.8451L44.6692 56.9039L44.908 58.0148C45.2275 59.5012 45.7036 60.6499 46.5154 61.8929L47.1886 62.9239L45.7437 64.3897C44.1809 65.9751 44.059 66.2387 44.5822 66.9034C44.7816 67.1569 44.9938 67.2637 45.2979 67.2637C45.6648 67.2637 45.952 67.0428 47.1912 65.8078L48.6521 64.3519L49.3287 64.8485C50.3326 65.5851 51.8815 66.2735 53.2635 66.5972C53.9372 66.7548 54.5654 66.9059 54.6594 66.9328C54.7796 66.9672 54.8304 67.3411 54.8304 68.1927C54.8304 69.2818 54.8622 69.4336 55.1469 69.7011C55.7095 70.2294 56.4737 70.0345 56.7308 69.2972C56.814 69.0587 56.882 68.4114 56.882 67.8586C56.882 66.9739 56.9121 66.8535 57.1337 66.8535C58.203 66.8535 60.9851 65.7682 62.2568 64.8548L62.9313 64.3705L64.3997 65.8171C66.0162 67.4095 66.3909 67.5737 66.9796 66.9473C67.5604 66.3292 67.4068 65.9874 65.8298 64.3875L64.3827 62.9196L64.8672 62.2454C65.7809 60.9741 66.8666 58.1928 66.8666 57.1239C66.8666 56.9021 66.9872 56.8723 67.8835 56.8723C68.9829 56.8723 69.5464 56.7221 69.826 56.3543C70.0901 56.0067 70.0491 55.4592 69.7335 55.1207C69.4866 54.8557 69.3139 54.8214 68.2248 54.8214C67.358 54.8214 66.9804 54.7709 66.9459 54.6505C66.919 54.5565 66.7678 53.9285 66.6101 53.255C66.2867 51.875 65.5979 50.3253 64.8632 49.3247L64.3688 48.6515L65.8228 47.1765C67.4231 45.5531 67.5875 45.1795 66.9604 44.5905C66.3415 44.0094 66.0007 44.1629 64.3927 45.7468L62.9172 47.2004L62.2437 46.7061C61.0038 45.7963 58.2153 44.7034 57.1337 44.7034C56.9121 44.7034 56.882 44.5831 56.882 43.6983C56.882 42.1294 56.5807 41.5587 55.7522 41.5587C55.5724 41.5587 55.2913 41.7011 55.1277 41.8751ZM58.0249 46.9686C61.2463 47.7897 63.8719 50.4489 64.6105 53.639C65.7274 58.4626 62.9147 63.2398 58.1957 64.5339C56.1147 65.1046 53.6847 64.8598 51.6845 63.8776C50.1461 63.1223 48.4666 61.4231 47.7299 59.8767C46.992 58.3278 46.7606 57.3494 46.7606 55.7785C46.7606 54.1896 46.995 53.2062 47.7386 51.6766C48.1966 50.7344 48.5265 50.2937 49.4811 49.3487C50.7702 48.0726 52.0194 47.3408 53.5326 46.9751C54.6535 46.7042 56.9744 46.7009 58.0249 46.9686ZM52.4127 56.6507C50.6757 57.2187 49.8296 58.418 50.6333 59.1729C51.0116 59.5281 51.7098 59.5645 51.9756 59.2428C52.0787 59.1178 52.4312 58.8969 52.7585 58.7517C53.713 58.3288 54.121 58.4848 55.5157 59.806C56.4297 60.6719 56.9082 61.0162 57.5174 61.246C58.8948 61.7659 60.4663 61.4373 61.5671 60.3995C62.1792 59.8224 62.2343 59.339 61.7437 58.8487C61.2867 58.3918 60.8676 58.4267 60.0278 58.9916C58.858 59.7786 58.1908 59.609 56.801 58.1711C55.4121 56.7341 53.832 56.1868 52.4127 56.6507ZM6.97707 59.7503C3.35417 60.4859 1.95769 64.9206 4.52961 67.5227C4.85022 67.8472 5.4203 68.2754 5.79643 68.4742C6.40412 68.7956 6.63281 68.836 7.84806 68.836C9.01913 68.8361 9.3043 68.7898 9.8313 68.5141C10.6696 68.0758 11.5581 67.1981 11.9969 66.375C12.3218 65.7656 12.3615 65.5429 12.3615 64.3241C12.3616 62.8959 12.21 62.4105 11.4362 61.3644C10.5506 60.1669 8.52892 59.4352 6.97707 59.7503ZM9.01065 62.0057C9.47869 62.2447 10.0574 62.8773 10.2329 63.3417C10.4585 63.9386 10.407 64.9586 10.1247 65.485C9.35354 66.9223 7.38329 67.3209 6.19691 66.2795C5.53888 65.7021 5.2786 65.1444 5.2786 64.3123C5.2786 62.3902 7.30766 61.1361 9.01065 62.0057Z" fill="#EF812F"/>
</svg>
