<svg width="70" height="70" viewBox="0 0 70 70" fill="none" xmlns="http://www.w3.org/2000/svg">
<path d="M37.5479 23.1544C37.2194 22.694 36.5799 22.5871 36.1195 22.9156C35.659 23.2441 35.5521 23.8837 35.8806 24.3441C36.8549 25.7094 37.3698 27.3182 37.3698 28.9968C37.3698 33.4206 33.7709 37.0195 29.3472 37.0195C24.9234 37.0195 21.3244 33.4206 21.3244 28.9968C21.3244 24.573 24.9234 20.974 29.3472 20.974C30.6041 20.974 31.8094 21.2583 32.9301 21.8188C33.4359 22.072 34.0511 21.8671 34.3042 21.3611C34.5572 20.8554 34.3524 20.2402 33.8465 19.987C32.4388 19.2829 30.925 18.9258 29.3472 18.9258C23.794 18.9258 19.2761 23.4436 19.2761 28.9968C19.2761 34.55 23.794 39.0677 29.3472 39.0677C34.9003 39.0677 39.4181 34.55 39.4181 28.9968C39.4182 26.8893 38.7715 24.8691 37.5479 23.1544Z" fill="#9E5EAE"/>
<path d="M32.7527 43.6215C34.633 43.6215 36.3352 44.8056 36.9886 46.5683C37.1851 47.0987 37.7744 47.3693 38.3048 47.1726C38.8351 46.9759 39.1056 46.3867 38.909 45.8564C37.9593 43.2946 35.4852 41.5732 32.7527 41.5732C29.1331 41.5732 26.1882 44.5181 26.1882 48.1377C26.1882 51.7573 29.1331 54.7022 32.7527 54.7022C35.263 54.7022 37.5168 53.3039 38.6344 51.0532C38.8859 50.5466 38.6792 49.932 38.1726 49.6804C37.666 49.4292 37.0514 49.6358 36.7999 50.1422C36.0307 51.6915 34.4799 52.6539 32.7528 52.6539C30.2626 52.6539 28.2366 50.628 28.2366 48.1377C28.2366 45.6475 30.2623 43.6215 32.7527 43.6215Z" fill="#9E5EAE"/>
<path d="M54.8214 31.9349C54.8214 29.2099 52.6045 26.9932 49.8797 26.9932C47.1549 26.9932 44.938 29.21 44.938 31.9349C44.938 34.6597 47.1549 36.8766 49.8797 36.8766C52.6045 36.8766 54.8214 34.6597 54.8214 31.9349ZM49.8797 34.8283C48.2841 34.8283 46.9862 33.5303 46.9862 31.9349C46.9862 30.3393 48.2843 29.0414 49.8797 29.0414C51.4751 29.0414 52.7732 30.3394 52.7732 31.9349C52.7732 33.5303 51.4751 34.8283 49.8797 34.8283Z" fill="#9E5EAE"/>
<path d="M68.9375 36.2862C68.3812 35.6343 67.5521 35.2522 66.6531 35.2306C65.2443 35.0406 63.8985 35.7596 63.2336 36.9445L60.5844 36.1702C60.5997 35.8055 60.6075 35.4382 60.6075 35.0777C60.6075 32.8588 60.3287 30.6771 59.7853 28.5718L62.3421 27.3558C62.8529 27.1129 63.07 26.502 62.8271 25.9912C62.5842 25.4805 61.9735 25.2631 61.4624 25.5061L59.1868 26.5883C58.4095 24.3437 57.3205 22.2052 55.934 20.2247L57.666 18.0933C58.2292 18.4224 58.8695 18.6063 59.5398 18.6243C60.5892 18.6519 61.5875 18.2701 62.3497 17.5477C63.899 16.0795 63.9834 13.6062 62.538 12.0345C62.1551 11.6181 61.5072 11.5911 61.091 11.9739C60.6747 12.3567 60.6475 13.0045 61.0304 13.4209C61.7227 14.1737 61.6825 15.3581 60.9408 16.061C60.5757 16.4071 60.0974 16.5894 59.5947 16.5768C59.0918 16.5633 58.6244 16.3548 58.2782 15.9896L58.2504 15.9603C58.0476 15.7463 57.7609 15.6312 57.4681 15.6414C57.1736 15.6528 56.8981 15.7903 56.7123 16.019L54.3114 18.9738C53.7556 19.6576 53.7217 20.6393 54.2289 21.3607C57.0619 25.3904 58.5593 30.1335 58.5593 35.0776C58.5593 35.4249 58.5515 35.7796 58.536 36.131C58.4958 37.0463 59.0805 37.8647 59.9581 38.121L63.5742 39.1777C63.8542 39.2599 64.1561 39.218 64.4037 39.0636C64.6513 38.9091 64.8211 38.6562 64.8707 38.3687C64.9954 37.6448 65.6867 37.1498 66.4114 37.2651C66.4646 37.2735 66.5184 37.2778 66.5724 37.2778C66.9071 37.2778 67.1938 37.3978 67.3799 37.6157C67.5659 37.8337 67.6392 38.1357 67.5867 38.4663L66.9576 42.4186C66.9009 42.7746 66.7091 43.0871 66.4173 43.2988C66.1256 43.5104 65.7692 43.5956 65.4128 43.5391C64.688 43.4237 64.1847 42.7386 64.2909 42.0118C64.3332 41.723 64.2502 41.43 64.0627 41.2062C63.8754 40.9824 63.6015 40.8492 63.3098 40.8401L59.4576 40.7189C58.5713 40.6944 57.766 41.2653 57.5043 42.1153C56.9025 44.0696 56.0477 45.9429 54.9636 47.6834C54.4711 48.474 54.5885 49.4833 55.2494 50.138L57.3882 52.256C57.8889 52.7521 58.6883 52.7739 59.208 52.3053C59.7546 51.8121 60.8906 51.7453 61.4178 52.175C61.4596 52.2091 61.5039 52.2397 61.5506 52.2668C61.8401 52.4349 62.0277 52.6827 62.0791 52.9645C62.1304 53.2464 62.0422 53.5445 61.8308 53.8039L59.3018 56.9056C59.0741 57.185 58.7511 57.3588 58.3925 57.3953C58.034 57.432 57.6826 57.3265 57.4032 57.0986C56.8894 56.6796 56.7576 55.6378 57.1372 54.9954C57.316 54.6931 57.3654 54.3386 57.2767 53.9977C57.1884 53.6588 56.9641 53.3631 56.6614 53.1866L53.985 51.6269C53.2083 51.1741 52.2213 51.3033 51.5853 51.9412C48.987 54.5458 45.7814 56.5402 42.3147 57.7089C41.4466 58.0018 40.8946 58.8426 40.9724 59.7536L41.2925 63.502C41.3173 63.7927 41.4651 64.0593 41.6986 64.2342C41.9321 64.4094 42.2294 64.4764 42.5153 64.4188C43.2379 64.2737 43.9316 64.7207 44.0964 65.4372C44.1737 65.7734 44.1087 66.1277 43.9134 66.4348C43.7061 66.7606 43.375 66.993 43.0047 67.0727L39.0468 67.9231C38.7237 67.9924 38.4336 67.9397 38.2293 67.7748C38.025 67.6098 37.9126 67.3369 37.9126 67.0066C37.9126 66.9342 37.905 66.8621 37.8898 66.7914C37.7357 66.0738 38.1928 65.3572 38.9089 65.1937C39.1935 65.1287 39.4368 64.9456 39.5777 64.69C39.7186 64.4345 39.7439 64.131 39.6471 63.8556L38.3672 60.2153C38.0727 59.3776 37.2487 58.8357 36.3616 58.8977C35.8032 58.9368 35.2379 58.9566 34.6812 58.9566C29.0745 58.9566 23.6249 56.9732 19.3363 53.372C18.6977 52.8355 17.7846 52.7588 17.0647 53.1804L13.7528 55.1198C13.4851 55.2767 13.3028 55.5465 13.2573 55.8536C13.2118 56.1607 13.3081 56.4718 13.5191 56.6996L14.0373 57.2591C14.4665 57.7225 14.6893 58.3249 14.6653 58.9559C14.6411 59.5869 14.3726 60.1706 13.9095 60.5997C12.9532 61.4855 11.4546 61.428 10.5689 60.4717L7.02453 56.6452C6.13887 55.689 6.19622 54.1903 7.15247 53.3047C8.10859 52.4189 9.60722 52.4764 10.493 53.4325L11.0111 53.9921C11.222 54.2197 11.5251 54.339 11.8345 54.3177C12.1442 54.2959 12.4271 54.1349 12.6041 53.8797L14.8508 50.6398C15.3192 49.9644 15.3251 49.0879 14.866 48.4067C12.2077 44.4628 10.8026 39.8538 10.8026 35.078C10.8026 34.1374 10.8586 33.1872 10.9688 32.2534C11.0762 31.3442 10.5536 30.4853 9.6983 30.1647L6.17205 28.8429C5.89868 28.7405 5.59459 28.7594 5.33637 28.8952C5.07802 29.0309 4.88972 29.2704 4.81899 29.5535C4.64093 30.266 3.91462 30.7085 3.20074 30.5393C3.12346 30.521 3.04439 30.5119 2.96492 30.5119C2.6357 30.5119 2.36779 30.4024 2.21035 30.2034C2.05305 30.0045 2.00812 29.7185 2.08377 29.3982L3.02487 25.4188C3.11199 25.0505 3.35095 24.7244 3.68058 24.5241C3.99164 24.3351 4.34707 24.2775 4.68216 24.3617C5.39522 24.5413 5.82822 25.2448 5.66778 25.9634C5.60428 26.2483 5.66518 26.5467 5.83559 26.7837C6.00587 27.0208 6.269 27.174 6.55931 27.2047L10.3911 27.6115C11.2756 27.7055 12.1188 27.192 12.4436 26.3634C13.1262 24.6225 14.0164 22.9607 15.0891 21.4241C15.6143 20.672 15.5586 19.667 14.9539 18.9802L12.4649 16.1538C12.2721 15.9347 11.9949 15.8083 11.7031 15.8064C11.414 15.8086 11.1325 15.9271 10.9367 16.1437C10.4429 16.6897 9.61841 16.743 9.05993 16.2648C8.79776 16.0403 8.63936 15.7168 8.61382 15.3539C8.58679 14.9688 8.71487 14.5849 8.9653 14.3008L11.3407 11.6057C11.579 11.3354 11.9083 11.174 12.2682 11.1513C12.6278 11.129 12.9749 11.2474 13.2453 11.4858C13.7959 11.9711 13.8543 12.8192 13.3758 13.3764C13.1856 13.5978 13.0989 13.8898 13.1376 14.179C13.1761 14.4683 13.3362 14.7274 13.5778 14.8912L16.7714 17.0574C17.507 17.5564 18.4929 17.5012 19.1688 16.9232C22.8037 13.8147 27.2296 11.8884 31.968 11.353C32.8796 11.2499 33.5969 10.5436 33.7122 9.63559L34.1873 5.89906C34.2242 5.60957 34.1357 5.31804 33.9441 5.09779C33.7527 4.87767 33.4763 4.74959 33.1845 4.74576C32.45 4.73648 31.8524 4.1317 31.8524 3.39775C31.8524 2.6537 32.4579 2.04837 33.202 2.04837H36.856C37.6001 2.04837 38.2054 2.65383 38.2054 3.39789C38.2054 4.13184 37.6078 4.73648 36.8733 4.7459C36.5815 4.74959 36.3052 4.87767 36.1137 5.09792C35.9221 5.31818 35.8338 5.60971 35.8705 5.8992L36.3571 9.72585C36.4692 10.6086 37.1639 11.312 38.0464 11.4363C42.1895 12.0206 46.1236 13.7004 49.4233 16.294C50.1178 16.8398 51.1004 16.8588 51.8129 16.3406L54.8936 14.1003C55.132 13.9269 55.284 13.6594 55.311 13.3658C55.3381 13.0723 55.2373 12.7814 55.0345 12.5676C54.312 11.8052 54.3279 10.6265 55.0706 9.88383C55.4278 9.52662 55.9005 9.33586 56.4 9.34023C56.9 9.34692 57.3668 9.55257 57.7143 9.91934L58.0391 10.2621C58.4284 10.6725 59.0765 10.6899 59.487 10.3009C59.8974 9.91169 59.9148 9.26349 59.5258 8.85303L59.2009 8.51029C58.4698 7.73892 57.4849 7.30633 56.4273 7.29213C55.368 7.27657 54.3735 7.68403 53.6222 8.43546C52.3707 9.68693 52.1189 11.5383 52.8796 13.0322L50.6505 14.6532C49.5076 13.7584 48.2942 12.9657 47.0265 12.2788L47.8632 10.5763C48.1127 10.0686 47.9034 9.45493 47.3958 9.20546C46.8881 8.95598 46.2745 9.16518 46.025 9.67287L45.1878 11.3765C43.0257 10.4172 40.736 9.75193 38.3824 9.4152L38.0228 6.58631C39.3217 6.10702 40.2539 4.85323 40.2539 3.39789C40.2536 1.52416 38.7295 0 36.856 0H33.202C31.3285 0 29.8042 1.5243 29.8042 3.39775C29.8042 4.85309 30.7364 6.10675 32.0353 6.58617L31.6873 9.3233C29.0578 9.62576 26.5179 10.3234 24.1362 11.3844L22.4568 8.25986C22.189 7.76159 21.568 7.57506 21.0698 7.84256C20.5717 8.11033 20.3848 8.73136 20.6525 9.22949L22.2985 12.292C20.7354 13.1435 19.2543 14.1597 17.8773 15.3324L15.5162 13.731C16.0155 12.4396 15.6914 10.9114 14.5997 9.94911C13.9189 9.34883 13.0448 9.0502 12.1394 9.10701C11.2337 9.16408 10.4043 9.57045 9.80412 10.2513L7.42885 12.9462C6.8182 13.6389 6.5055 14.5687 6.57064 15.4972C6.63495 16.4116 7.04583 17.2367 7.72789 17.8206C8.83544 18.7688 10.3571 18.8884 11.5611 18.2268L13.3802 20.293C12.2377 21.9363 11.2872 23.7108 10.5545 25.5691L7.7283 25.2691C7.57236 23.9039 6.59535 22.7313 5.18166 22.3753C4.31075 22.1561 3.39983 22.2975 2.61645 22.7735C1.82132 23.2566 1.24345 24.0489 1.03098 24.9474L0.0898804 28.9266C-0.129691 29.8554 0.0573817 30.7839 0.603442 31.4739C1.12656 32.1352 1.93848 32.5263 2.84517 32.5578C4.2235 32.8331 5.60059 32.217 6.34479 31.0951L8.92789 32.0634C8.81209 33.0602 8.75338 34.0742 8.75338 35.0777C8.75338 35.5986 8.76949 36.1177 8.80021 36.6345L5.901 37.029C5.3406 37.1053 4.94803 37.6213 5.02436 38.1819C5.09427 38.6954 5.53355 39.0681 6.03782 39.0681C6.0837 39.0681 6.1304 39.0649 6.17724 39.0586L9.00217 38.6743C9.23471 40.3504 9.6292 41.9929 10.1807 43.5825L8.56207 44.4349C8.06162 44.6984 7.86963 45.3178 8.13303 45.8182C8.31642 46.1664 8.67199 46.3654 9.04013 46.3654C9.20098 46.3654 9.3643 46.3274 9.51641 46.2473L10.9345 45.5005C11.5461 46.8917 12.2819 48.2337 13.1397 49.5113L11.6298 51.6889C9.95323 50.2494 7.41902 50.265 5.75967 51.8018C3.97498 53.455 3.86792 56.2521 5.52099 58.0369L9.06539 61.8634C10.7186 63.6481 13.5155 63.7553 15.3005 62.1021C16.1651 61.3013 16.6661 60.2117 16.7112 59.034C16.7497 58.0266 16.4508 57.0579 15.8621 56.2576L18.0567 54.9724C19.7579 56.3953 21.6268 57.5832 23.6096 58.5191L22.5504 61.0351C22.331 61.5563 22.5757 62.1569 23.097 62.3763C23.2268 62.4309 23.3614 62.4567 23.4939 62.4567C23.8935 62.4567 24.2734 62.2212 24.4382 61.8297L25.495 59.3194C26.8915 59.8484 28.3333 60.2571 29.8041 60.5393V61.4325C29.8041 61.9981 30.2626 62.4566 30.8282 62.4566C31.3938 62.4566 31.8523 61.9981 31.8523 61.4325V60.8494C32.7881 60.9524 33.7322 61.0047 34.6804 61.0047C35.2673 61.0047 35.8629 60.9845 36.4515 60.9445L37.3977 63.6356C36.2576 64.3585 35.6131 65.7279 35.8651 67.1148C35.8939 68.0192 36.2824 68.8355 36.9411 69.3678C37.4538 69.7821 38.1004 70 38.7816 70C39.0105 70 39.2433 69.9754 39.4761 69.9253L43.434 69.0749C44.3368 68.881 45.1411 68.3193 45.6408 67.5339C46.1327 66.7605 46.2929 65.8527 46.0916 64.9779C45.7649 63.5571 44.6127 62.556 43.251 62.3721L43.0171 59.633C44.7521 59.0441 46.425 58.2626 48.0016 57.3161L49.3967 59.2193C49.5973 59.493 49.9083 59.638 50.2235 59.638C50.4336 59.638 50.6457 59.5735 50.8281 59.4397C51.2843 59.1053 51.3829 58.4645 51.0486 58.0083L49.7178 56.1928C50.8844 55.3617 51.9846 54.4357 52.999 53.4229L55.0673 54.6283C54.5939 56.0553 54.9989 57.7812 56.1082 58.6855C56.8116 59.2592 57.6961 59.5238 58.5991 59.4326C59.502 59.3407 60.315 58.9028 60.8885 58.1994L63.4175 55.0977C64.0054 54.3767 64.2517 53.4651 64.0935 52.5968C63.9397 51.7529 63.4141 51.006 62.6466 50.5356C61.5115 49.6641 59.6937 49.6267 58.3998 50.375L56.7295 48.7209C57.8846 46.8579 58.7981 44.8556 59.4459 42.7673L62.2922 42.8568C62.5614 44.2149 63.653 45.3325 65.0903 45.5614C65.987 45.7042 66.8848 45.4892 67.6193 44.9563C68.3539 44.4235 68.837 43.6365 68.9797 42.7402L69.6088 38.7879C69.7553 37.8696 69.5105 36.9576 68.9375 36.2862Z" fill="#9E5EAE"/>
</svg>
